<svg xmlns="http://www.w3.org/2000/svg" viewBox="0 0 100 100">
  <circle
    style="stroke: rgb(0,0,0); stroke-width: 4; fill: rgba(0,0,0,0.2);" 
    vector-effect="non-scaling-stroke" 
    cx="50" 
    cy="50" 
    r="45"
  />

  <circle
    style="stroke: rgb(0,0,0); stroke-width: 4; fill: rgba(0,0,0,0.2);" vector-effect="non-scaling-stroke" 
    r="9" cx="24" cy="24" transform="rotate(15 50 50)"
  />

  <circle
    style="stroke: rgb(0,0,0); stroke-width: 4; fill: rgba(0,0,0,0.2);" vector-effect="non-scaling-stroke" 
    r="9" cx="24" cy="24" transform="rotate(75 50 50)"
  />

  <circle
    style="stroke: rgb(0,0,0); stroke-width: 4; fill: rgba(0,0,0,0.2);" vector-effect="non-scaling-stroke" 
    r="9" cx="24" cy="24" transform="rotate(135 50 50)"
  />

  <circle
    style="stroke: rgb(0,0,0); stroke-width: 4; fill: rgba(0,0,0,0.2);" vector-effect="non-scaling-stroke" 
    r="9" cx="24" cy="24" transform="rotate(195 50 50)"
  />

  <circle
    style="stroke: rgb(0,0,0); stroke-width: 4; fill: rgba(0,0,0,0.2);" vector-effect="non-scaling-stroke" 
    r="9" cx="24" cy="24" transform="rotate(255 50 50)"
  />

  <circle
    style="stroke: rgb(0,0,0); stroke-width: 4; fill: rgba(0,0,0,0.2);" vector-effect="non-scaling-stroke" 
    r="9" cx="24" cy="24" transform="rotate(315 50 50)"
  />


  <circle
    style="stroke: rgb(0,0,0); stroke-width: 4; fill: rgba(0,0,0,0.2);" vector-effect="non-scaling-stroke" 
    r="9" cx="50" cy="33" transform="rotate(0 50 50)"
  />

  <circle
    style="stroke: rgb(0,0,0); stroke-width: 4; fill: rgba(0,0,0,0.2);" vector-effect="non-scaling-stroke" 
    r="9" cx="50" cy="33" transform="rotate(60 50 50)"
  />

  <circle
    style="stroke: rgb(0,0,0); stroke-width: 4; fill: rgba(0,0,0,0.2);" vector-effect="non-scaling-stroke" 
    r="9" cx="50" cy="33" transform="rotate(120 50 50)"
  />

  <circle
    style="stroke: rgb(0,0,0); stroke-width: 4; fill: rgba(0,0,0,0.2);" vector-effect="non-scaling-stroke" 
    r="9" cx="50" cy="33" transform="rotate(180 50 50)"
  />

  <circle
    style="stroke: rgb(0,0,0); stroke-width: 4; fill: rgba(0,0,0,0.2);" vector-effect="non-scaling-stroke" 
    r="9" cx="50" cy="33" transform="rotate(240 50 50)"
  />

  <circle
    style="stroke: rgb(0,0,0); stroke-width: 4; fill: rgba(0,0,0,0.2);" vector-effect="non-scaling-stroke" 
    r="9" cx="50" cy="33" transform="rotate(300 50 50)"
  /> 

</svg>